<?xml version="1.0" standalone="no"?>
<!DOCTYPE svg PUBLIC "-//W3C//DTD SVG 20010904//EN"
 "http://www.w3.org/TR/2001/REC-SVG-20010904/DTD/svg10.dtd">
<svg version="1.0" xmlns="http://www.w3.org/2000/svg"
 width="400.000000pt" height="400.000000pt" viewBox="0 0 400.000000 400.000000"
 preserveAspectRatio="xMidYMid meet">
<metadata>
Created by potrace 1.14, written by Peter Selinger 2001-2017
</metadata>
<g transform="translate(0.000000,400.000000) scale(0.100000,-0.100000)"
fill="#000000" stroke="none">
<path d="M1069 3697 c-102 -43 -164 -104 -206 -206 -22 -54 -23 -68 -23 -322
l0 -267 84 -3 c73 -4 88 -7 111 -29 73 -67 73 -193 0 -260 -23 -22 -38 -25
-111 -29 l-84 -3 0 -203 0 -202 80 -5 c60 -4 88 -10 108 -25 84 -61 82 -223
-2 -274 -23 -14 -50 -19 -108 -19 l-78 0 0 -199 0 -199 84 -3 c73 -4 88 -7
111 -29 73 -67 73 -193 0 -260 -23 -22 -38 -25 -111 -29 l-84 -3 0 -234 c0
-211 2 -238 21 -289 29 -77 104 -156 187 -197 l67 -33 909 -3 c1015 -3 980 -5
1085 66 32 22 72 62 93 93 72 104 69 20 66 1545 l-3 1369 -27 57 c-35 76 -104
148 -175 184 l-58 29 -940 2 -940 3 -56 -23z m705 -751 c19 -41 59 -118 90
-170 31 -52 56 -101 56 -109 0 -7 -33 -45 -74 -84 -110 -104 -117 -152 -40
-289 78 -141 198 -265 335 -347 123 -72 173 -65 274 39 40 41 80 74 89 74 9 0
49 -22 89 -48 40 -27 114 -71 165 -98 l94 -49 -4 -57 c-5 -68 -44 -132 -117
-191 -66 -53 -127 -71 -241 -70 -79 0 -111 6 -188 32 -273 91 -457 224 -655
471 -111 139 -215 372 -238 534 -12 86 2 199 32 257 51 101 160 179 251 179
l47 0 35 -74z"/>
<path d="M579 2811 c-24 -24 -29 -38 -29 -76 0 -38 5 -52 29 -76 l29 -29 182
0 c210 0 232 6 251 69 9 29 9 47 -1 75 -20 63 -32 66 -243 66 l-189 0 -29 -29z"/>
<path d="M592 2103 c-19 -7 -42 -58 -42 -93 0 -37 23 -85 45 -94 9 -3 103 -6
209 -6 l193 0 24 26 c19 20 24 36 24 76 0 42 -4 53 -28 74 -28 24 -31 24 -220
23 -106 0 -198 -3 -205 -6z"/>
<path d="M579 1371 c-24 -24 -29 -38 -29 -76 0 -38 5 -52 29 -76 l29 -29 181
0 c99 0 191 4 206 10 57 22 69 127 20 176 -24 24 -27 24 -215 24 l-192 0 -29
-29z"/>
</g>
</svg>
